<svg width="15" height="15" viewBox="0 0 15 15" fill="none" xmlns="http://www.w3.org/2000/svg">
<path d="M7.5 15C9.48912 15 11.3968 14.2098 12.8033 12.8033C14.2098 11.3968 15 9.48912 15 7.5C15 5.51088 14.2098 3.60322 12.8033 2.1967C11.3968 0.790176 9.48912 0 7.5 0C5.51088 0 3.60322 0.790176 2.1967 2.1967C0.790176 3.60322 0 5.51088 0 7.5C0 9.48912 0.790176 11.3968 2.1967 12.8033C3.60322 14.2098 5.51088 15 7.5 15ZM5.12695 5.12695C5.40234 4.85156 5.84766 4.85156 6.12012 5.12695L7.49707 6.50391L8.87402 5.12695C9.14941 4.85156 9.59473 4.85156 9.86719 5.12695C10.1396 5.40234 10.1426 5.84766 9.86719 6.12012L8.49023 7.49707L9.86719 8.87402C10.1426 9.14941 10.1426 9.59473 9.86719 9.86719C9.5918 10.1396 9.14648 10.1426 8.87402 9.86719L7.49707 8.49023L6.12012 9.86719C5.84473 10.1426 5.39941 10.1426 5.12695 9.86719C4.85449 9.5918 4.85156 9.14648 5.12695 8.87402L6.50391 7.49707L5.12695 6.12012C4.85156 5.84473 4.85156 5.39941 5.12695 5.12695Z" fill="#842029"/>
</svg>
